<svg width="100" height="100" viewBox="0 0 100 100" fill="none" xmlns="http://www.w3.org/2000/svg">
<g clip-path="url(#clip0_10_267)">
<path fill-rule="evenodd" clip-rule="evenodd" d="M5.59392 37.0359L7.22336 36.9154L13.0633 46.5613L6.38964 47.0899L5.59315 37.0352L5.59392 37.0359ZM13.0575 36.4661L20.7125 35.865L26.5525 45.5109L18.8974 46.112L13.0575 36.4661ZM26.5638 35.4144L34.201 34.8146L40.0409 44.4605L32.4037 45.0604L26.5631 35.4145L26.5638 35.4144ZM40.0523 34.3648L47.6895 33.765L53.5473 43.4096L45.8922 44.0107L40.0516 34.3648L40.0523 34.3648ZM53.5415 33.3144L61.1965 32.7132L67.0364 42.3592L59.3814 42.9603L53.5415 33.3144ZM67.0306 32.2639L75.2117 31.6239L76.024 41.6595L72.8713 41.9105L67.0314 32.2646L67.0306 32.2639Z" fill="white"/>
<path fill-rule="evenodd" clip-rule="evenodd" d="M5.59416 37.0358L7.12643 36.5522L7.79747 25.614L1.51704 27.6464L5.5941 37.0351L5.59416 37.0358ZM12.6324 34.7709L19.8583 32.4218L20.5306 21.5014L13.3035 23.8327L12.6324 34.7709ZM25.3663 30.6582L32.575 28.3104L33.2474 17.39L26.0374 19.72L25.3663 30.6582ZM38.0817 26.529L45.2917 24.1989L45.9641 13.2785L38.7541 15.6086L38.0817 26.529ZM50.7977 22.4176L58.0256 20.0863L58.6966 9.14801L51.488 11.4959L50.7977 22.4176ZM63.5316 18.3042L71.2407 15.8138L67.1643 6.42504L64.2046 7.38374L63.5323 18.3041L63.5316 18.3042Z" fill="white"/>
<path d="M40.1246 57.0174L38.2394 60.592L40.7627 59.4369L38.461 63.5887L41.0555 63.3968L40.0135 66.9452L42.4183 65.8695L43.7254 74.2647L44.6019 74.1999L46.3994 80.3928L39.528 91.1191L35.6934 85.729L37.9592 81.105L34.7567 73.0604L27.8885 80.9692L27.619 77.3239L25.7327 74.9086L40.2672 52.7619L40.1246 57.0174Z" fill="url(#paint0_linear_10_267)"/>
<path d="M18.3961 77.6866L19.3366 79.2034L18.0228 81.6967L20.4942 81.7607L18.2441 85.6442L20.7675 85.4577L18.2743 91.7739L14.6235 86.2478L9.44703 85.3438L19.7197 73.4309L18.3961 77.6866Z" fill="url(#paint1_linear_10_267)"/>
<path d="M60.6182 66.1083L61.5578 67.6252L60.2449 70.1184L62.715 70.1649L60.4663 74.066L62.9897 73.8794L61.1102 82.7756L58.6138 73.0758L54.0588 69.624L61.9418 61.8526L60.6182 66.1083Z" fill="url(#paint2_linear_10_267)"/>
<path fill-rule="evenodd" clip-rule="evenodd" d="M78.6445 76.633L61.6957 60.4441L56.0655 65.071L40.1348 48.3486L24.5014 72.1089L19.8168 69.5127L8.7156 83.318L6.19189 49.1836L76.1971 44.0078L78.6445 76.633ZM23.8585 66.9763L23.2216 67.1821L23.8819 67.2919L24.1385 68.1532L24.25 67.2647L24.9035 67.0577L24.2267 66.9491L23.9856 66.0856L23.8585 66.9763ZM73.7293 63.2892L73.0748 63.4962L73.7526 63.6047L73.9926 64.4673L74.1197 63.5776L74.7567 63.3718L74.0964 63.262L73.8398 62.3997L73.7293 63.2892ZM15.6569 62.3331L14.1086 62.8343L15.7139 63.1034L16.3264 65.1899L16.6079 63.0373L18.1747 62.5337L16.551 62.267L15.9559 60.1782L15.6569 62.3331ZM54.9425 59.6567L54.3065 59.8623L54.9658 59.9722L55.2235 60.8345L55.334 59.945L55.9875 59.738L55.3106 59.6295L55.0706 58.7669L54.9425 59.6567ZM68.8567 58.6279L68.2022 58.835L68.88 58.9435L69.1191 59.8071L69.2472 58.9163L69.9017 58.7093L69.2238 58.6008L68.9662 57.7385L68.8567 58.6279ZM21.6063 53.6648L19.42 54.3718L21.6865 54.7507L22.5356 57.6657L22.9302 54.6587L25.1505 53.9481L22.8499 53.5728L22.0161 50.639L21.6063 53.6648ZM67.2973 49.9341L65.7481 50.4364L67.3557 50.723L67.9659 52.792L68.2487 50.6569L69.8132 50.1359L68.1904 49.8681L67.5967 47.7978L67.2973 49.9341ZM57.3395 50.3707L56.1017 50.7795L57.3849 50.9842L57.8599 52.6402L58.0861 50.9324L59.3438 50.5398L58.0408 50.3188L57.567 48.6794L57.3395 50.3707ZM9.98655 53.0795L9.33206 53.2865L10.0098 53.3941L10.2499 54.2576L10.3779 53.3668L11.0325 53.1608L10.3547 53.0523L10.097 52.19L9.98655 53.0795ZM48.576 49.5566L47.9227 49.7802L48.6005 49.8887L48.8406 50.7523L48.9687 49.8615L49.6231 49.6545L48.9441 49.5294L48.6865 48.6671L48.576 49.5566ZM72.5451 47.2733L71.8906 47.4803L72.5685 47.5889L72.8085 48.4514L72.9366 47.5616L73.5726 47.356L72.9133 47.2461L72.6556 46.3838L72.5451 47.2733Z" fill="url(#paint3_linear_10_267)"/>
<path d="M68.0084 68.6102L66.5406 73.2996L65.5361 69.2503L64.4152 69.3332L64.112 65.2331L68.0084 68.6102Z" fill="url(#paint4_linear_10_267)"/>
<path d="M47.3643 57.9618L45.9106 59.7428L48.951 62.0199L47.7095 66.4458L46.783 62.9734L42.1951 60.4934L44.7144 57.6289L43.9002 54.0072L47.3643 57.9618Z" fill="url(#paint5_linear_10_267)"/>
</g>
<defs>
<linearGradient id="paint0_linear_10_267" x1="9" y1="68" x2="79" y2="68" gradientUnits="userSpaceOnUse">
<stop stop-color="#60A5FA"/>
<stop offset="1" stop-color="#2563EB"/>
</linearGradient>
<linearGradient id="paint1_linear_10_267" x1="9" y1="68" x2="79" y2="68" gradientUnits="userSpaceOnUse">
<stop stop-color="#60A5FA"/>
<stop offset="1" stop-color="#2563EB"/>
</linearGradient>
<linearGradient id="paint2_linear_10_267" x1="9" y1="68" x2="79" y2="68" gradientUnits="userSpaceOnUse">
<stop stop-color="#60A5FA"/>
<stop offset="1" stop-color="#2563EB"/>
</linearGradient>
<linearGradient id="paint3_linear_10_267" x1="9" y1="68" x2="79" y2="68" gradientUnits="userSpaceOnUse">
<stop stop-color="#60A5FA"/>
<stop offset="1" stop-color="#2563EB"/>
</linearGradient>
<linearGradient id="paint4_linear_10_267" x1="9" y1="68" x2="79" y2="68" gradientUnits="userSpaceOnUse">
<stop stop-color="#60A5FA"/>
<stop offset="1" stop-color="#2563EB"/>
</linearGradient>
<linearGradient id="paint5_linear_10_267" x1="9" y1="68" x2="79" y2="68" gradientUnits="userSpaceOnUse">
<stop stop-color="#60A5FA"/>
<stop offset="1" stop-color="#2563EB"/>
</linearGradient>
<clipPath id="clip0_10_267">
<rect width="73.3055" height="82.4254" fill="white" transform="translate(0.313477 11.3676) rotate(-4.22843)"/>
</clipPath>
</defs>
</svg> 